HIERARCHY
ROOT Hips
{
  OFFSET 5.84602e-005 68.8428 3.50346
  CHANNELS 6 Xposition Yposition Zposition Zrotation Xrotation Yrotation
  JOINT Spine
  {
    OFFSET 0 8.597 -4.6522
    CHANNELS 3 Zrotation Xrotation Yrotation
    JOINT Spine1
    {
      OFFSET 0 7.8454 0.4098
      CHANNELS 3 Zrotation Xrotation Yrotation
      JOINT Spine2
      {
        OFFSET 0 9.7078 -2.1609
        CHANNELS 3 Zrotation Xrotation Yrotation
        JOINT Neck
        {
          OFFSET 0 21.8761 -0.4549
          CHANNELS 3 Zrotation Xrotation Yrotation
          JOINT Head
          {
            OFFSET 0 12.3537 3.3602
            CHANNELS 3 Zrotation Xrotation Yrotation
            End Site
            {
              OFFSET 0.0001 18.9506 0.5657
            }
          }
        }
        JOINT LeftShoulder
        {
          OFFSET 2.2086 21.1115 7.2329
          CHANNELS 3 Zrotation Xrotation Yrotation
          JOINT LeftArm
          {
            OFFSET 13.1193 3.0282 -4.8998
            CHANNELS 3 Zrotation Xrotation Yrotation
            JOINT LeftForeArm
            {
              OFFSET 27.4081 -0.0973053 -0.2375
              CHANNELS 3 Zrotation Xrotation Yrotation
              JOINT LeftHand
              {
                OFFSET 22.8641 0.0662994 -0.1369
                CHANNELS 3 Zrotation Xrotation Yrotation
                JOINT LeftHandIndex1
                {
                  OFFSET 8.8614 0.775009 2.4612
                  CHANNELS 3 Zrotation Xrotation Yrotation
                  JOINT LeftHandIndex2
                  {
                    OFFSET 3.3146 -0.808304 0.5841
                    CHANNELS 3 Zrotation Xrotation Yrotation
                    JOINT LeftHandIndex3
                    {
                      OFFSET 2.2628 -0.552002 0.3989
                      CHANNELS 3 Zrotation Xrotation Yrotation
                      End Site
                      {
                        OFFSET 1.6102 -0.4807 0.2612
                      }
                    }
                  }
                }
                JOINT LeftHandMiddle1
                {
                  OFFSET 8.9937 0.895004 0.2143
                  CHANNELS 3 Zrotation Xrotation Yrotation
                  JOINT LeftHandMiddle2
                  {
                    OFFSET 4.0984 0.0113983 -0.0242
                    CHANNELS 3 Zrotation Xrotation Yrotation
                    JOINT LeftHandMiddle3
                    {
                      OFFSET 2.2716 0.00689697 -0.0138001
                      CHANNELS 3 Zrotation Xrotation Yrotation
                      End Site
                      {
                        OFFSET 2.0404 -0.1441 0.0027
                      }
                    }
                  }
                }
                JOINT LeftHandRing1
                {
                  OFFSET 8.5234 0.597198 -2.0164
                  CHANNELS 3 Zrotation Xrotation Yrotation
                  JOINT LeftHandRing2
                  {
                    OFFSET 3.7188 -0.188293 -0.2328
                    CHANNELS 3 Zrotation Xrotation Yrotation
                    JOINT LeftHandRing3
                    {
                      OFFSET 2.1191 -0.106598 -0.1332
                      CHANNELS 3 Zrotation Xrotation Yrotation
                      End Site
                      {
                        OFFSET 1.8737 -0.2304 -0.0886
                      }
                    }
                  }
                }
                JOINT LeftHandPinky1
                {
                  OFFSET 7.9094 -0.601089 -3.4825
                  CHANNELS 3 Zrotation Xrotation Yrotation
                  JOINT LeftHandPinky2
                  {
                    OFFSET 2.2874 -0.477005 -0.6314
                    CHANNELS 3 Zrotation Xrotation Yrotation
                    JOINT LeftHandPinky3
                    {
                      OFFSET 1.6774 -0.349396 -0.4633
                      CHANNELS 3 Zrotation Xrotation Yrotation
                      End Site
                      {
                        OFFSET 1.4888 -0.4091 -0.3416
                      }
                    }
                  }
                }
                JOINT LeftHandThumb1
                {
                  OFFSET 1.833 -1.3875 1.3896
                  CHANNELS 3 Zrotation Xrotation Yrotation
                  JOINT LeftHandThumb2
                  {
                    OFFSET 3.4129 -1.121 2.5732
                    CHANNELS 3 Zrotation Xrotation Yrotation
                    JOINT LeftHandThumb3
                    {
                      OFFSET 2.2474 -0.804199 1.6192
                      CHANNELS 3 Zrotation Xrotation Yrotation
                      End Site
                      {
                        OFFSET 1.6527 -0.5689 1.1317
                      }
                    }
                  }
                }
              }
            }
          }
        }
        JOINT RightShoulder
        {
          OFFSET -2.2086 21.1115 7.2329
          CHANNELS 3 Zrotation Xrotation Yrotation
          JOINT RightArm
          {
            OFFSET -13.1216 3.0287 -4.9007
            CHANNELS 3 Zrotation Xrotation Yrotation
            JOINT RightForeArm
            {
              OFFSET -27.4081 -0.0973053 -0.2375
              CHANNELS 3 Zrotation Xrotation Yrotation
              JOINT RightHand
              {
                OFFSET -22.8641 0.0664063 -0.1369
                CHANNELS 3 Zrotation Xrotation Yrotation
                JOINT RightHandIndex1
                {
                  OFFSET -8.8614 0.774994 2.4612
                  CHANNELS 3 Zrotation Xrotation Yrotation
                  JOINT RightHandIndex2
                  {
                    OFFSET -3.3146 -0.808304 0.5841
                    CHANNELS 3 Zrotation Xrotation Yrotation
                    JOINT RightHandIndex3
                    {
                      OFFSET -2.2628 -0.552002 0.3989
                      CHANNELS 3 Zrotation Xrotation Yrotation
                      End Site
                      {
                        OFFSET -1.6102 -0.4807 0.2612
                      }
                    }
                  }
                }
                JOINT RightHandMiddle1
                {
                  OFFSET -8.9937 0.894989 0.2143
                  CHANNELS 3 Zrotation Xrotation Yrotation
                  JOINT RightHandMiddle2
                  {
                    OFFSET -4.0984 0.0113983 -0.0242
                    CHANNELS 3 Zrotation Xrotation Yrotation
                    JOINT RightHandMiddle3
                    {
                      OFFSET -2.2716 0.00691223 -0.0138001
                      CHANNELS 3 Zrotation Xrotation Yrotation
                      End Site
                      {
                        OFFSET -2.0404 -0.1441 0.0027
                      }
                    }
                  }
                }
                JOINT RightHandRing1
                {
                  OFFSET -8.5234 0.597198 -2.0164
                  CHANNELS 3 Zrotation Xrotation Yrotation
                  JOINT RightHandRing2
                  {
                    OFFSET -3.7188 -0.188309 -0.2328
                    CHANNELS 3 Zrotation Xrotation Yrotation
                    JOINT RightHandRing3
                    {
                      OFFSET -2.1191 -0.106598 -0.1332
                      CHANNELS 3 Zrotation Xrotation Yrotation
                      End Site
                      {
                        OFFSET -1.8737 -0.2304 -0.0886
                      }
                    }
                  }
                }
                JOINT RightHandPinky1
                {
                  OFFSET -7.9094 -0.601105 -3.4825
                  CHANNELS 3 Zrotation Xrotation Yrotation
                  JOINT RightHandPinky2
                  {
                    OFFSET -2.2874 -0.477005 -0.6314
                    CHANNELS 3 Zrotation Xrotation Yrotation
                    JOINT RightHandPinky3
                    {
                      OFFSET -1.6774 -0.349396 -0.4633
                      CHANNELS 3 Zrotation Xrotation Yrotation
                      End Site
                      {
                        OFFSET -1.4888 -0.4091 -0.3416
                      }
                    }
                  }
                }
                JOINT RightHandThumb1
                {
                  OFFSET -1.833 -1.38751 1.3896
                  CHANNELS 3 Zrotation Xrotation Yrotation
                  JOINT RightHandThumb2
                  {
                    OFFSET -3.41299 -1.12099 2.5732
                    CHANNELS 3 Zrotation Xrotation Yrotation
                    JOINT RightHandThumb3
                    {
                      OFFSET -2.24741 -0.804108 1.6192
                      CHANNELS 3 Zrotation Xrotation Yrotation
                      End Site
                      {
                        OFFSET -1.6527 -0.5689 1.1317
                      }
                    }
                  }
                }
              }
            }
          }
        }
      }
    }
  }
  JOINT RightUpLeg
  {
    OFFSET -9.1966 3.8861 -0.7581
    CHANNELS 3 Zrotation Xrotation Yrotation
    JOINT RightLeg
    {
      OFFSET -0.7359 -41.0265 0
      CHANNELS 3 Zrotation Xrotation Yrotation
      JOINT RightFoot
      {
        OFFSET 0 -40.2855 0
        CHANNELS 3 Zrotation Xrotation Yrotation
        JOINT RightToeBase
        {
          OFFSET 0 -5.6122 11.7359
          CHANNELS 3 Zrotation Xrotation Yrotation
          End Site
          {
            OFFSET 0 0 7.8731
          }
        }
      }
    }
  }
  JOINT LeftUpLeg
  {
    OFFSET 9.1965 3.8864 -0.7581
    CHANNELS 3 Zrotation Xrotation Yrotation
    JOINT LeftLeg
    {
      OFFSET 0.7359 -41.0268 0
      CHANNELS 3 Zrotation Xrotation Yrotation
      JOINT LeftFoot
      {
        OFFSET 0 -40.2855 0
        CHANNELS 3 Zrotation Xrotation Yrotation
        JOINT LeftToeBase
        {
          OFFSET 0 -5.6122 11.7359
          CHANNELS 3 Zrotation Xrotation Yrotation
          End Site
          {
            OFFSET 0 0 7.8731
          }
        }
      }
    }
  }
}
MOTION
Frames:	4
Frame Time:	0.0333333
5.84602e-005 68.8428 3.50346 0 0 -0 0 0 -0 0 0 -0 0 0 -0 0 0 -0 0 0 -0 0 0 -0 0 0 -0 0 0 -0 0 0 -0 0 0 -0 0 0 -0 0 0 -0 0 0 -0 -0.0146107 -8.87603e-005 -2.63497e-007 2.99804e-018 -2.42657e-020 -1.42182e-022 0 0 -0 -0.0187562 -0.001176 5.858e-005 5.06224e-018 3.88251e-019 1.21329e-020 0 0 -0 -0.012269 -0.00324817 0.000675346 -1.74678e-018 3.88251e-019 -0 0 0 -0 0 0 -0 0 0 -0 0 0 -0 0 0 -0 0 0 -0 0 0 -0 0 0 -0 0 0 -0 0 0 -0 0 0 -0 0.0149955 -9.10982e-005 2.64101e-007 -9.69331e-018 1.21329e-020 -4.7394e-023 0 0 -0 0.0189956 -0.00119102 -5.96516e-005 -5.41541e-019 0 2.42657e-020 0 0 -0 0.0122698 -0.00324857 -0.000673756 -2.00796e-019 0 -1.94126e-019 0 0 -0 0 0 -0 0 0 -0 3.39842 1.33031 -0.0637918 -5.65207e-008 0.834868 -0.000436188 -3.39935 -2.16518 -0.0642563 -8.89002e-024 -1.18485e-023 -1.48106e-024 -3.39844 1.35642 0.0640283 -3.18788e-007 0.782166 -0.000588827 3.39931 -2.13858 0.0634662 1.1399e-023 0 -0 
-30.7605 28.3676 -23.4453 -133.331 66.6651 2.23174e-006 -0.216519 4.4853 -0.130416 -0.424706 8.97105 -0.24489 -0.424697 8.97106 -0.244892 -5.14946e-005 19.3236 3.69756e-005 0.000806051 -0.0922581 0.119968 -13.0298 0.181505 -3.55271 -32.1445 -0.382618 20.3806 -8.58769 45.7873 -26.9325 25.1533 17.8845 0.0118769 4.2565e-006 -6.9763e-009 9.34741e-007 -0 0 3.18055e-015 -0 -4.77083e-015 -0 4.2565e-006 -6.9763e-009 9.34741e-007 -0.0145965 -8.74849e-005 -1.32889e-006 -6.36111e-015 1.59028e-015 3.18055e-015 4.2565e-006 -6.9763e-009 9.34741e-007 -0.0187484 -0.00118169 5.85709e-005 -6.36111e-015 -3.18055e-015 -3.18055e-015 4.2565e-006 -6.9763e-009 9.34741e-007 -0.0123098 -0.00325283 0.000675841 -3.18055e-015 1.59028e-015 3.18055e-015 4.2565e-006 -6.9763e-009 9.34741e-007 -0 0 3.18055e-015 -0 -4.77083e-015 -0 13.0283 0.181413 3.55057 32.1427 -0.38315 -20.3856 8.58826 45.7879 26.936 -25.1572 17.8916 -0.0198762 3.53113e-031 6.36111e-015 -3.18055e-015 6.36111e-015 1.27222e-014 -9.54166e-015 9.54166e-015 -1.59028e-015 -0 3.53113e-031 6.36111e-015 -3.18055e-015 0.0149638 -9.4036e-005 -1.19698e-006 -6.36111e-015 -6.36111e-015 6.36111e-015 3.53113e-031 6.36111e-015 -3.18055e-015 0.018981 -0.00118835 -6.0484e-005 -1.98271e-006 3.82222e-009 2.47894e-006 3.53113e-031 6.36111e-015 -3.18055e-015 0.0123139 -0.00325714 -0.00068251 6.36111e-015 -1.59028e-015 -0 3.53113e-031 6.36111e-015 -3.18055e-015 6.36111e-015 1.27222e-014 -9.54166e-015 9.54166e-015 -1.59028e-015 -0 -6.61851 -9.80603 -3.65264 -2.40497 44.8008 0.546168 -3.6844 20.4055 2.73359 -1.43125e-014 6.36111e-015 2.62396e-014 6.74621 -9.18686 3.65429 2.4589 45.6597 -0.662172 3.48183 18.9383 -2.65363 -2.74971e-006 8.90123e-007 1.40546e-006 
-37.741 4.39292 -34.6082 -13.3294 83.3349 180 -0.29819 6.46415 -0.204011 -0.578614 12.9293 -0.377545 -0.578615 12.9292 -0.377546 8.20983e-005 27.6929 -6.03519e-005 -0.00215914 -0.183629 0.240485 -18.5383 0.558741 -5.06333 -46.6482 -0.550549 29.772 11.2289 57.7536 -57.6247 36.625 26.1342 -0.0501834 -6.0128e-007 4.26292e-008 -2.77199e-008 7.95139e-016 0 -0 -3.59814e-007 2.52123e-007 -1.03929e-008 -6.0128e-007 4.26292e-008 -2.77199e-008 -0.0146093 -8.88363e-005 2.69581e-006 -3.59811e-007 2.52124e-007 -1.03605e-008 -6.0128e-007 4.26292e-008 -2.77199e-008 -0.0187781 -0.00117807 6.2957e-005 -3.5981e-007 2.52125e-007 -1.03479e-008 -6.0128e-007 4.26292e-008 -2.77199e-008 -0.0122899 -0.00325225 0.000676349 -3.5981e-007 2.52127e-007 -1.03558e-008 -6.0128e-007 4.26292e-008 -2.77199e-008 7.95139e-016 0 -0 -3.59814e-007 2.52123e-007 -1.03929e-008 18.5307 0.556491 5.05811 46.6413 -0.550418 -29.7668 -11.2299 57.753 57.5937 -36.6275 26.1133 0.0697281 0 2.28602e-015 -0 -5.32707e-007 -6.45269e-007 1.45378e-007 7.95139e-016 -9.93923e-015 1.59028e-015 0 2.28602e-015 -0 0.014987 -8.89942e-005 2.88438e-006 -1.19271e-015 8.94531e-016 -0 0 2.28602e-015 -0 0.0190062 -0.00119281 -6.40841e-005 3.97569e-016 2.08724e-015 3.18055e-015 0 2.28602e-015 -0 0.0122626 -0.00324621 -0.000674751 7.95139e-016 -9.0447e-015 -6.36111e-015 0 2.28602e-015 -0 -5.32707e-007 -6.45269e-007 1.45378e-007 7.95139e-016 -9.93923e-015 1.59028e-015 -10.7929 -14.102 -5.65698 -6.61029 64.8802 4.24234 -4.39712 29.4703 2.84645 -1.17842e-008 1.05472e-007 -1.11783e-008 10.8096 -14.9017 5.63677 6.80352 65.539 -4.42595 4.38314 29.6079 -2.83271 2.01824e-008 -1.09811e-007 -2.44022e-007 
-35.7755 10.3768 -32.6926 -0 90 -179.996 -0.282832 5.93711 -0.18537 -0.550705 11.875 -0.34388 -0.550705 11.8751 -0.34388 -9.53969e-006 25.1075 5.5703e-006 -0.00893696 -0.274172 0.361553 -16.55 1.13408 -4.53348 -43.7094 -0.59848 28.1728 4.78872 56.3407 -49.9755 34.4156 24.7487 -0.186541 1.3379e-006 1.16581e-006 3.10305e-006 -2.60319e-008 1.22864e-007 1.06169e-006 6.63691e-007 5.3209e-007 -6.13178e-008 1.3379e-006 1.16581e-006 3.10305e-006 -0.0146273 -8.92855e-005 2.64588e-006 6.63686e-007 5.32098e-007 -6.12504e-008 1.3379e-006 1.16581e-006 3.10305e-006 -0.0187459 -0.00117635 6.25373e-005 6.63685e-007 5.32099e-007 -6.12375e-008 1.3379e-006 1.16581e-006 3.10305e-006 -0.0122825 -0.00325151 0.000676709 6.63689e-007 5.32092e-007 -6.12794e-008 1.3379e-006 1.16581e-006 3.10305e-006 -2.60319e-008 1.22864e-007 1.06169e-006 6.63691e-007 5.3209e-007 -6.13178e-008 16.5314 1.12761 4.52419 43.6943 -0.596599 -28.1422 -4.79536 56.333 49.8734 -34.4129 24.6649 0.269481 3.3919e-007 -2.55996e-007 -3.3957e-008 6.78379e-007 -5.11993e-007 -6.79141e-008 1.19037e-006 1.66386e-007 -1.12433e-007 3.3919e-007 -2.55996e-007 -3.3957e-008 0.0149868 -9.06636e-005 -1.09451e-006 1.19038e-006 1.66372e-007 -1.12456e-007 3.3919e-007 -2.55996e-007 -3.3957e-008 0.0189894 -0.00119013 -6.26201e-005 1.19037e-006 1.66368e-007 -1.12473e-007 3.3919e-007 -2.55996e-007 -3.3957e-008 0.0122559 -0.00324433 -0.000670612 1.689e-006 8.79253e-007 -1.4988e-006 3.3919e-007 -2.55996e-007 -3.3957e-008 6.78379e-007 -5.11993e-007 -6.79141e-008 1.19037e-006 1.66386e-007 -1.12433e-007 -9.73963 -13.7553 -5.27256 -5.74744 61.7486 3.56826 -4.15239 26.724 2.59009 -1.16287e-007 8.08185e-008 -2.91104e-007 9.73486 -13.7553 5.26781 5.7412 61.749 -3.56794 4.14838 26.723 -2.5929 -1.05265e-007 1.07937e-008 1.38196e-008 
